<?xml version="1.0" standalone="no"?>
<!DOCTYPE svg PUBLIC "-//W3C//DTD SVG 20010904//EN"
 "http://www.w3.org/TR/2001/REC-SVG-20010904/DTD/svg10.dtd">
<svg version="1.0" xmlns="http://www.w3.org/2000/svg"
 width="1024.000000pt" height="1024.000000pt" viewBox="0 0 1024.000000 1024.000000"
 preserveAspectRatio="xMidYMid meet">

<g transform="translate(0.000000,1024.000000) scale(0.100000,-0.100000)"
fill="#000000" stroke="none">
<path d="M4913 8419 c-266 -24 -561 -149 -798 -340 -77 -62 -164 -145 -208
-198 -26 -31 -37 -36 -110 -48 -63 -10 -105 -25 -192 -69 -60 -31 -117 -63
-126 -70 -8 -8 -21 -14 -28 -14 -24 0 -87 -39 -122 -77 -43 -45 -98 -151 -127
-243 -19 -61 -32 -181 -37 -339 -1 -36 -5 -77 -9 -91 -5 -14 -4 -20 1 -13 5 7
8 -11 9 -45 0 -83 37 -158 105 -212 30 -24 64 -47 77 -53 12 -6 22 -15 22 -20
0 -5 -10 -7 -22 -4 l-23 6 23 -17 c20 -15 21 -21 12 -52 -6 -19 -13 -168 -16
-330 -5 -281 -7 -298 -30 -358 -13 -34 -24 -75 -24 -90 0 -15 -4 -32 -9 -37
-4 -6 -19 -44 -31 -85 -18 -60 -23 -96 -21 -182 1 -69 -3 -108 -9 -108 -12 0
-234 -136 -298 -183 -100 -73 -281 -228 -315 -269 -36 -44 -67 -113 -67 -148
0 -18 -75 -100 -91 -100 -10 0 -69 -119 -69 -139 0 -9 -10 -45 -21 -81 -15
-47 -22 -94 -23 -168 -1 -93 -3 -103 -18 -98 -10 2 -18 3 -18 2 0 -2 18 -22
39 -45 22 -23 45 -56 52 -73 12 -30 12 -31 -63 -102 -41 -39 -91 -85 -111
-103 -47 -42 -97 -129 -131 -228 -41 -118 -47 -278 -16 -412 12 -54 36 -127
52 -163 61 -136 173 -272 278 -338 58 -36 130 -100 130 -115 0 -26 77 -168
116 -214 57 -66 148 -129 206 -142 66 -16 164 -12 263 10 50 10 118 24 153 29
69 11 87 15 246 59 127 35 172 52 226 86 22 14 45 25 51 25 10 0 89 -43 209
-113 19 -11 94 -53 165 -92 72 -40 155 -87 185 -105 30 -17 98 -57 150 -88 52
-30 156 -90 230 -132 74 -42 164 -94 200 -114 l65 -38 110 4 110 3 119 73 c65
41 126 77 135 80 15 7 133 72 301 168 41 23 158 87 260 142 102 55 212 114
244 132 85 48 123 46 267 -13 64 -26 177 -61 250 -77 74 -17 216 -51 316 -75
187 -46 289 -56 360 -36 18 5 62 29 99 53 74 48 121 111 185 245 36 75 46 88
112 136 137 102 269 266 333 415 63 146 91 316 74 460 -12 108 -25 150 -83
272 -41 85 -53 101 -120 157 l-74 63 19 77 c31 124 21 218 -38 351 -88 203
-101 228 -167 329 -37 55 -70 109 -74 119 -19 53 -171 210 -290 300 -66 50
-255 148 -341 178 -30 11 -38 19 -44 47 -68 335 -71 356 -54 382 17 24 16 26
-12 55 -32 33 -38 62 -63 299 -10 99 -10 114 5 134 9 13 16 40 16 60 0 30 -7
43 -36 69 l-36 31 30 102 c17 56 41 143 53 192 13 50 36 126 53 170 28 74 30
89 30 215 0 159 -18 262 -70 420 -32 95 -44 119 -86 166 -28 30 -55 54 -62 54
-6 0 -34 12 -61 27 -121 64 -200 77 -290 46 l-49 -16 -25 34 c-27 35 -222 233
-277 281 -69 60 -290 198 -369 231 -142 58 -332 111 -455 126 -95 12 -250 12
-387 0z m542 -112 c215 -60 397 -136 524 -220 240 -160 357 -280 503 -517 31
-51 97 -248 107 -323 6 -43 11 -115 11 -160 l-1 -82 -30 55 c-72 133 -164 278
-229 360 -74 95 -258 265 -371 343 -66 46 -87 56 -199 102 -36 15 -69 31 -75
35 -18 15 -153 30 -252 29 -115 -1 -185 -16 -88 -19 107 -3 29 -17 -130 -23
-275 -11 -580 -53 -725 -99 -101 -32 -288 -117 -360 -163 -83 -54 -304 -272
-356 -350 -45 -69 -104 -208 -76 -180 5 6 15 26 21 46 6 20 34 60 62 90 l50
54 -63 -125 c-35 -69 -69 -150 -76 -180 -7 -30 -22 -75 -32 -100 -11 -25 -33
-82 -50 -127 -17 -45 -40 -93 -51 -105 l-20 -23 5 145 c2 80 11 177 19 215 8
39 20 115 27 170 25 215 39 255 146 430 121 197 152 235 308 370 226 195 548
338 851 379 17 2 127 3 245 1 193 -3 224 -6 305 -28z m-1662 -559 c-17 -18
-58 -73 -91 -123 -33 -49 -77 -108 -97 -130 -21 -22 -42 -52 -47 -67 -6 -16
-16 -28 -23 -28 -8 0 -14 -11 -14 -27 1 -16 -13 -63 -30 -106 -38 -96 -57
-203 -66 -367 -7 -134 -21 -226 -35 -235 -24 -15 -133 72 -163 129 -19 36 -22
60 -25 200 -2 95 1 175 7 200 6 23 13 55 16 73 8 50 66 194 96 238 53 79 107
122 227 181 102 50 215 90 261 93 9 1 3 -12 -16 -31z m1697 -1 c124 -23 333
-89 439 -139 119 -56 267 -151 329 -212 74 -71 206 -261 198 -283 -3 -8 -2
-11 4 -8 9 5 60 -139 60 -173 1 -9 7 -30 15 -47 l15 -30 -6 40 c-13 88 -74
273 -112 340 -3 6 1 4 10 -3 27 -21 96 -172 108 -237 7 -33 17 -71 23 -85 5
-14 9 -40 8 -58 -2 -17 2 -47 8 -65 15 -47 34 -228 35 -339 1 -103 -11 -135
-16 -45 -2 28 -4 -15 -4 -98 0 -144 -1 -153 -31 -230 -17 -44 -54 -125 -81
-180 -28 -55 -67 -141 -86 -192 -51 -128 -74 -165 -158 -251 -151 -155 -287
-244 -460 -301 -192 -64 -276 -75 -533 -67 -358 10 -536 37 -744 112 -210 76
-369 172 -501 304 -98 97 -157 177 -236 315 -85 151 -91 182 -70 367 15 142
15 163 0 293 -27 234 -18 297 79 566 78 214 141 293 337 421 106 69 241 139
344 178 101 39 345 99 466 116 132 17 439 12 560 -9z m1219 -57 c71 -34 88
-50 142 -131 113 -167 162 -526 100 -720 -24 -75 -71 -127 -145 -159 -28 -12
-51 -31 -66 -56 -25 -40 -33 -101 -13 -97 9 2 10 -20 7 -80 -3 -45 -1 -102 4
-127 l10 -45 2 50 c1 44 3 47 10 22 10 -32 2 -97 -11 -97 -5 0 -9 -15 -10 -32
0 -27 -2 -29 -9 -13 -15 38 -32 125 -35 185 -2 32 -6 64 -10 69 -3 6 -1 11 4
11 14 0 14 355 1 420 -6 28 -5 79 1 135 6 50 12 108 15 131 3 23 14 51 25 62
17 19 59 103 59 119 0 3 -14 -14 -31 -38 -17 -24 -35 -48 -40 -53 -5 -5 -8 30
-8 80 0 49 -5 112 -11 140 l-11 51 -45 -16 c-38 -14 -44 -20 -44 -43 0 -41
-18 -34 -26 10 -4 20 -15 59 -26 86 -19 49 -19 49 2 71 29 31 25 43 -5 15 -20
-19 -25 -20 -25 -7 0 17 42 50 78 61 12 4 22 12 22 17 0 15 22 10 89 -21z
m-398 -277 c13 -16 12 -17 -3 -4 -10 7 -18 15 -18 17 0 8 8 3 21 -13z m-2695
-835 c12 -55 4 -131 -19 -167 -14 -24 -20 -48 -18 -77 3 -52 -16 -68 -24 -21
-12 63 -11 267 1 267 6 0 17 7 24 15 19 23 28 18 36 -17z m-96 -75 c-1 -88 13
-218 23 -225 11 -7 7 -24 -34 -151 -11 -31 -19 -81 -19 -111 0 -51 2 -56 35
-76 68 -42 161 -185 174 -268 7 -49 7 -50 -18 -55 -15 -3 -58 -24 -96 -46 -38
-23 -76 -41 -84 -41 -12 0 -13 25 -9 153 6 149 4 177 -11 177 -9 0 -26 -57
-36 -120 -4 -25 -21 -77 -36 -117 -21 -50 -29 -89 -29 -131 0 -46 -4 -63 -20
-77 -11 -10 -21 -16 -23 -14 -36 50 -30 200 9 259 13 19 24 42 24 51 0 9 20
57 45 105 l45 89 -15 80 c-28 153 -13 420 26 480 10 17 25 42 31 58 7 15 14
27 16 27 2 0 3 -21 2 -47z m107 -215 c-3 -57 -2 -161 2 -233 5 -71 7 -132 5
-134 -2 -2 -12 2 -21 10 -10 8 -30 21 -45 28 -48 24 -63 136 -25 192 26 39 43
87 52 144 7 44 25 95 33 95 3 0 2 -46 -1 -102z m3196 -23 c4 -8 2 -17 -2 -20
-5 -2 -11 4 -14 15 -6 23 8 27 16 5z m-15 -153 c4 -47 2 -63 -7 -58 -8 5 -11
-11 -11 -58 0 -104 -16 -124 -44 -55 -15 36 -19 39 -33 27 -15 -12 -15 -10 0
19 10 18 17 39 17 48 0 8 9 34 19 58 11 23 22 60 26 82 6 34 8 37 17 21 6 -10
13 -48 16 -84z m107 -182 c4 -30 12 -63 17 -73 5 -10 7 -21 4 -24 -10 -10 -35
69 -41 130 -7 75 9 49 20 -33z m-306 -37 c-1 -54 -2 -56 -10 -23 -8 33 -5 80
6 80 3 0 5 -26 4 -57z m87 5 c0 -62 66 -242 72 -198 2 14 14 57 28 97 13 39
25 80 25 90 1 16 2 16 6 1 5 -21 14 -23 30 -7 8 8 14 6 21 -7 21 -42 22 -71 2
-94 -11 -13 -20 -27 -20 -31 0 -5 -27 -52 -60 -106 -33 -53 -60 -103 -60 -111
0 -7 -5 -12 -12 -10 -7 3 -20 45 -29 94 -9 49 -22 104 -28 122 -6 22 -7 42 0
58 22 60 3 59 -39 -1 -31 -44 -32 -50 -35 -154 -2 -104 -17 -137 -17 -39 0 26
-4 49 -9 52 -5 4 -21 -7 -34 -24 -31 -37 -37 -37 -37 -4 0 14 4 23 9 20 16
-10 41 5 41 25 0 35 34 129 47 129 7 0 31 34 54 75 22 41 42 75 42 75 1 0 2
-24 3 -52z m-3339 -110 c-3 -8 -6 -5 -6 6 -1 11 2 17 5 13 3 -3 4 -12 1 -19z
m3132 -268 c1 -100 -58 -237 -136 -315 -61 -62 -172 -145 -246 -184 -124 -66
-384 -150 -535 -171 -536 -75 -1138 40 -1483 282 -105 73 -207 188 -253 284
-33 71 -49 145 -33 161 4 3 40 -29 80 -72 139 -151 183 -192 272 -251 138 -92
229 -138 360 -183 400 -135 716 -154 1115 -67 113 24 145 34 205 61 16 8 68
31 115 53 47 21 105 54 130 73 25 19 58 42 73 52 58 37 178 162 249 257 79
107 86 109 87 20z m389 25 c-15 -28 -30 -45 -41 -45 -17 0 -17 3 4 38 41 67
70 73 37 7z m-3234 -198 c9 -38 35 -107 57 -154 35 -71 59 -102 148 -191 117
-118 178 -165 309 -233 177 -92 397 -165 602 -199 36 -6 108 -18 160 -27 120
-20 494 -22 630 -4 199 26 442 97 575 168 288 153 499 386 584 646 13 37 25
67 28 67 3 0 38 -29 77 -64 102 -91 137 -112 234 -141 143 -43 172 -57 253
-117 109 -80 123 -109 62 -129 -64 -20 -240 -106 -290 -141 -80 -55 -216 -169
-210 -175 2 -2 72 24 155 57 168 67 278 90 427 90 143 0 161 -5 189 -56 13
-24 27 -61 31 -82 l6 -39 -98 -6 c-95 -6 -233 -33 -322 -63 -65 -22 -142 -56
-138 -61 3 -2 40 6 83 17 60 17 120 23 247 27 278 9 365 -17 383 -115 8 -43
23 -77 24 -52 0 19 26 -17 46 -66 16 -37 10 -39 -28 -7 -10 9 -18 11 -22 4 -4
-6 -21 -4 -49 6 -60 23 -296 23 -454 0 -165 -23 -348 -70 -505 -127 -42 -16
-92 -32 -112 -35 -32 -7 -36 -5 -36 15 0 28 14 52 66 117 24 30 44 58 44 63 0
9 -84 -34 -113 -59 -17 -14 -17 -13 -11 29 7 43 7 43 -20 36 -25 -6 -27 -5
-21 16 4 13 22 44 41 70 54 76 48 103 -12 49 -18 -17 -35 -31 -37 -31 -1 0 -2
22 -1 48 1 49 16 90 31 84 4 -2 9 2 12 9 2 8 -2 10 -13 6 -20 -8 -20 -2 -1 88
19 91 74 217 146 333 32 50 55 92 51 91 -13 -1 -136 -161 -173 -223 -55 -95
-108 -228 -130 -324 -11 -48 -24 -106 -29 -130 -6 -23 -10 -82 -10 -130 0 -49
-3 -91 -6 -94 -13 -14 -45 7 -60 39 -9 18 -19 32 -21 29 -2 -2 3 -18 11 -35
21 -39 20 -48 -3 -54 -22 -5 -31 16 -31 76 0 27 4 36 12 31 8 -5 9 -2 3 12
-18 41 -17 123 3 186 11 35 23 87 26 116 7 72 30 98 80 94 25 -2 36 0 31 7 -3
6 -28 11 -54 11 -46 0 -50 -2 -65 -34 -9 -19 -16 -52 -16 -75 0 -22 -9 -64
-21 -93 -17 -42 -20 -66 -15 -118 3 -36 7 -102 8 -148 3 -75 1 -82 -16 -82
-17 0 -18 6 -13 73 3 39 9 81 13 92 5 14 4 17 -3 10 -13 -12 -33 -103 -33
-149 0 -32 -3 -35 -93 -78 -51 -25 -115 -61 -143 -80 -27 -19 -78 -52 -114
-72 -36 -20 -104 -66 -151 -103 -85 -67 -279 -223 -289 -233 -3 -3 -43 -39
-90 -80 -96 -85 -220 -208 -297 -294 -28 -32 -56 -55 -61 -52 -6 3 -44 48 -86
100 -78 97 -159 174 -366 347 -200 168 -402 314 -614 444 l-81 50 -6 108 c-5
89 -14 131 -50 244 -49 152 -64 156 -26 5 34 -128 42 -207 28 -259 -6 -23 -15
-44 -19 -46 -4 -3 -33 7 -65 21 l-57 25 6 51 c4 37 3 47 -5 36 -21 -30 -12 51
10 86 28 45 1 35 -28 -11 -13 -19 -23 -39 -23 -43 0 -5 -8 -16 -19 -26 -14
-13 -24 -14 -45 -7 -14 6 -26 16 -26 23 -1 87 -50 419 -60 413 -4 -3 -11 -35
-14 -72 -11 -113 -27 -203 -37 -203 -5 0 -9 -34 -9 -75 0 -55 -4 -75 -13 -75
-7 0 -55 9 -107 19 -52 11 -135 28 -185 38 -70 14 -136 18 -295 18 -184 0
-213 -2 -285 -23 -44 -13 -99 -32 -122 -42 -36 -16 -42 -16 -47 -3 -12 30 -6
154 8 182 20 37 73 76 154 113 37 17 87 39 112 51 32 14 73 21 146 25 91 4
110 2 183 -23 45 -15 84 -25 87 -22 14 14 -72 67 -150 92 -92 30 -199 38 -303
22 -31 -4 -53 -4 -53 1 0 16 82 93 135 128 96 61 213 78 365 53 76 -12 195
-50 263 -84 90 -46 37 14 -73 81 -76 47 -191 97 -274 119 -32 9 -55 20 -50 24
71 60 172 119 265 154 36 14 85 35 110 47 55 28 205 128 221 148 11 13 14 11
19 -14 4 -16 14 -60 23 -97z m-429 -1032 c39 -9 97 -25 130 -35 33 -10 93 -28
133 -40 57 -17 72 -26 72 -41 0 -15 -7 -19 -32 -20 -18 -1 -44 -5 -58 -10 -18
-6 -7 -8 38 -5 70 5 74 -6 8 -23 -25 -6 -48 -16 -52 -23 -4 -7 -3 -8 4 -4 6 4
28 9 48 12 l37 4 -47 -41 c-26 -23 -57 -50 -69 -61 l-22 -19 22 10 c12 6 32
11 44 11 19 0 20 -2 8 -17 -12 -15 -12 -16 4 -10 9 3 17 2 17 -3 0 -19 -52
-23 -84 -8 -103 52 -403 117 -569 125 -129 7 -233 -8 -335 -47 l-73 -29 -10
25 c-5 14 -9 50 -9 80 0 51 2 55 38 79 36 24 220 87 306 105 70 15 372 5 451
-15z m4490 -115 c156 -44 215 -96 215 -190 0 -37 -11 -43 -41 -22 -36 25 -203
61 -289 61 -83 1 -203 -19 -295 -49 -33 -10 -127 -33 -210 -49 -82 -16 -178
-36 -212 -44 -58 -14 -63 -14 -79 4 -22 24 -13 43 35 73 26 17 39 32 38 45 -1
18 -4 18 -32 7 -16 -7 -47 -16 -67 -20 -31 -6 -37 -4 -43 14 -3 11 -3 24 0 30
12 20 125 70 157 70 18 0 71 12 118 26 47 14 108 33 135 41 125 38 439 40 570
3z m-3790 -123 c120 -65 407 -256 525 -349 227 -178 330 -271 461 -420 124
-139 162 -200 167 -266 3 -35 11 -61 23 -73 20 -20 25 -39 11 -39 -19 0 -44
28 -57 65 -13 37 -14 38 -15 12 0 -30 16 -67 34 -79 8 -5 7 -8 -1 -8 -7 0 -13
-7 -13 -15 0 -33 -49 -9 -183 92 -54 40 -104 78 -110 84 -50 42 -245 178 -347
243 -69 43 -141 89 -160 101 -46 29 -142 86 -206 121 -29 16 -92 52 -141 81
-49 29 -122 66 -163 83 -138 58 -215 99 -249 134 l-34 35 24 5 c108 22 102 19
117 64 7 23 18 42 24 42 5 0 44 -24 86 -54 43 -29 100 -66 127 -80 151 -81
478 -305 644 -441 40 -33 110 -87 156 -120 90 -65 244 -193 315 -262 48 -46
79 -58 60 -24 -17 34 -194 190 -347 307 -321 246 -512 378 -817 564 -104 63
-194 123 -199 132 -9 13 -3 25 32 60 24 24 50 53 58 65 14 21 14 21 56 3 23
-11 78 -39 122 -63z m2613 0 c22 -47 58 -90 137 -169 99 -98 105 -107 83 -113
-49 -14 -327 -132 -413 -176 -204 -103 -309 -160 -324 -173 -9 -9 -53 -37 -98
-63 -142 -84 -205 -125 -351 -230 -219 -157 -210 -150 -326 -250 -41 -36 -52
-40 -59 -20 -9 24 120 174 246 286 112 99 365 301 442 354 142 97 241 162 274
180 19 10 57 36 85 56 76 56 171 105 263 137 76 27 104 44 69 44 -16 0 -126
-41 -176 -66 -41 -20 -184 -105 -251 -149 -26 -16 -97 -61 -159 -100 -150 -94
-273 -185 -495 -371 -130 -108 -295 -278 -295 -305 0 -21 -16 -33 -35 -25 -12
4 -12 10 2 37 11 22 14 48 10 89 -5 57 -5 57 49 125 29 37 95 112 146 167 51
55 95 103 98 106 29 40 348 300 436 357 34 22 92 61 129 88 117 83 416 238
476 246 3 1 20 -27 37 -62z m-2993 -47 c-3 -5 -10 -10 -16 -10 -5 0 -9 5 -9
10 0 6 7 10 16 10 8 0 12 -4 9 -10z m-605 -11 c36 -5 95 -19 131 -31 l66 -21
-55 -96 c-68 -120 -74 -126 -100 -112 -35 18 -191 25 -242 10 l-45 -13 110
-12 c78 -9 133 -21 190 -44 44 -17 88 -34 98 -37 28 -9 20 -18 -30 -31 -25 -7
-94 -35 -153 -62 -59 -28 -113 -50 -121 -50 -34 0 -139 -62 -199 -118 -51 -46
-75 -79 -108 -145 -52 -105 -65 -172 -60 -304 l4 -103 -53 52 c-65 64 -113
153 -149 278 -24 80 -28 113 -27 205 1 192 51 311 189 455 99 102 193 161 284
179 64 12 194 13 270 0z m4727 -73 c96 -21 160 -47 253 -104 189 -117 314
-353 296 -558 -18 -195 -102 -366 -242 -490 l-69 -61 -2 120 c-4 217 -73 356
-253 509 -96 82 -234 161 -328 189 -31 9 -54 26 -84 61 -50 60 -44 69 49 75
68 5 227 -25 331 -61 23 -8 42 -13 42 -11 0 21 -294 120 -385 130 -90 10 -95
12 -95 47 0 59 32 92 117 121 43 15 96 31 118 36 62 14 177 12 252 -3z m-4335
-8 c51 -11 87 -28 59 -28 -7 0 -9 -4 -6 -10 3 -5 16 -10 29 -10 34 0 36 -9 10
-35 -29 -29 -30 -44 -5 -126 30 -100 35 -129 20 -129 -10 0 -10 -3 -1 -12 19
-19 14 -60 -13 -114 -32 -64 -67 -96 -130 -119 -72 -26 -153 -68 -237 -122
-75 -49 -78 -67 -5 -38 23 10 76 28 117 40 41 13 112 40 158 59 146 63 248 79
360 55 79 -16 126 -42 153 -85 18 -30 20 -38 8 -44 -8 -5 -48 -36 -89 -69 -63
-51 -213 -135 -345 -192 -47 -20 -281 -117 -295 -122 -34 -12 21 -6 112 12
174 36 298 84 550 212 75 38 115 14 105 -62 -7 -54 -52 -106 -160 -187 -142
-107 -133 -105 -482 -112 -165 -3 -288 -7 -274 -8 14 -1 60 -11 101 -21 139
-36 525 -57 698 -38 l75 8 -22 -22 c-49 -50 -307 -186 -399 -209 -116 -30
-297 -37 -404 -16 -119 24 -175 54 -235 129 -93 114 -142 272 -152 489 -5 109
-2 141 16 222 21 92 24 97 86 164 98 106 214 154 410 170 123 11 133 24 50 66
-31 15 -70 40 -86 56 l-31 27 20 44 c10 24 25 60 32 79 22 57 45 83 86 96 52
16 54 16 116 2z m3811 -40 c-35 -39 -43 -64 -43 -135 0 -55 4 -75 24 -103 l23
-35 -86 3 c-47 2 -97 0 -110 -5 -20 -8 -6 -15 90 -48 232 -78 397 -169 468
-257 51 -64 68 -69 27 -8 -14 22 -26 43 -26 48 0 4 -18 26 -40 47 -22 21 -40
47 -40 57 0 25 21 23 27 -3 4 -12 8 -16 13 -10 17 29 238 -164 265 -233 30
-73 22 -184 -24 -362 -28 -110 -44 -145 -109 -244 -66 -100 -139 -172 -207
-204 -172 -80 -474 -72 -702 19 -142 57 -191 92 -230 165 -18 35 -32 65 -30
67 2 2 30 -10 63 -27 142 -72 471 -61 687 22 43 16 77 32 75 34 -2 1 -58 -3
-123 -11 -163 -19 -365 -19 -440 0 -62 17 -135 57 -197 109 -21 17 -54 44 -74
60 -37 31 -124 151 -124 173 0 15 42 27 90 26 19 0 64 -14 100 -30 138 -63
156 -71 195 -88 106 -43 327 -108 352 -103 24 5 -8 22 -206 108 -206 90 -255
114 -326 160 -33 21 -86 53 -117 70 -32 16 -58 34 -58 39 0 16 82 83 126 102
85 38 218 41 323 8 91 -29 277 -107 392 -165 69 -35 130 -64 135 -64 13 0
-157 125 -211 155 -11 6 -45 27 -75 46 -30 20 -85 48 -122 63 -67 28 -74 37
-93 104 -4 12 -2 37 4 55 5 17 12 55 16 83 6 46 4 51 -17 61 l-23 12 24 0 c20
1 21 3 11 16 -8 10 -9 19 -3 28 6 6 13 28 17 48 5 28 16 43 46 64 42 29 231
104 264 105 19 0 19 -1 -1 -22z m-344 -363 c-1 -29 -1 -29 -9 -5 -4 14 -8 34
-9 45 -1 16 1 17 9 5 5 -8 9 -28 9 -45z m-1576 -965 c-1 -168 -21 -601 -29
-637 -2 -13 -9 -23 -16 -23 -11 0 -10 62 9 628 5 169 8 192 22 190 14 -3 16
-24 14 -158z"/>
<path d="M5233 7913 c9 -2 23 -2 30 0 6 3 -1 5 -18 5 -16 0 -22 -2 -12 -5z"/>
<path d="M3230 7130 c-12 -23 -20 -57 -19 -82 1 -24 3 -34 6 -23 2 11 13 48
23 83 10 34 16 62 14 62 -2 0 -13 -18 -24 -40z"/>
<path d="M4815 7635 c-166 -32 -318 -83 -474 -163 -153 -78 -237 -142 -349
-266 -196 -216 -254 -648 -141 -1041 73 -250 156 -393 328 -563 136 -134 264
-215 468 -296 272 -106 654 -83 971 60 29 13 55 24 57 24 3 0 24 12 48 27 23
15 67 40 97 56 79 42 146 94 242 189 130 128 186 205 270 370 29 57 57 106 61
109 5 4 13 44 19 90 5 46 16 102 23 124 l14 40 1 -56 c0 -32 -15 -112 -35
-192 -19 -75 -35 -145 -35 -156 0 -30 -85 -187 -145 -266 -55 -74 -169 -195
-220 -233 -205 -154 -342 -222 -577 -287 -32 -8 -58 -18 -58 -22 0 -18 141 11
250 52 141 52 224 96 330 174 223 164 388 397 440 621 12 52 29 118 38 145 19
60 17 49 27 110 4 28 12 56 18 63 6 7 12 60 13 118 2 57 7 112 13 122 5 10 5
36 -1 67 -5 28 -9 59 -9 70 -1 11 -8 54 -17 95 -8 41 -16 89 -17 105 -1 17 -7
43 -13 58 -7 16 -12 34 -12 41 0 7 -7 21 -16 32 -15 19 -16 19 -9 -1 21 -60
26 -94 40 -242 14 -157 12 -234 -7 -215 -5 5 -13 61 -18 124 -12 165 -27 229
-76 324 -109 214 -296 381 -548 489 -99 42 -137 53 -306 92 -102 23 -140 26
-335 29 -198 3 -233 0 -350 -21z m857 -134 c24 -10 54 -31 68 -46 l25 -28 -28
18 c-43 28 -42 11 1 -24 44 -34 75 -43 50 -13 -20 23 -29 50 -19 57 12 7 71
-15 71 -26 0 -11 -22 -12 -36 -1 -5 4 6 -6 25 -23 19 -16 46 -41 60 -53 l26
-24 -37 22 c-48 27 -50 19 -3 -10 19 -12 40 -18 46 -14 7 4 9 3 6 -3 -6 -9 52
-63 67 -63 2 0 -2 13 -10 28 -7 16 -43 50 -79 77 -61 44 -73 65 -39 65 8 0 52
-36 98 -80 46 -44 89 -80 95 -80 7 0 9 5 6 10 -11 18 1 11 21 -12 15 -19 16
-20 2 -9 -28 21 -21 -2 12 -44 17 -21 30 -42 30 -47 0 -5 6 -6 13 -2 6 4 9 4
5 -1 -4 -4 3 -22 16 -39 55 -74 38 -89 -23 -18 -32 37 -26 25 28 -58 82 -126
104 -167 93 -174 -5 -3 -20 16 -34 42 -14 26 -35 51 -46 57 -12 5 -22 13 -22
18 0 4 5 5 10 2 12 -8 -10 45 -27 63 -6 6 -15 12 -20 12 -5 0 -16 13 -26 29
-19 33 -153 166 -184 184 -12 7 -42 27 -68 46 -26 19 -81 51 -121 72 -41 21
-86 51 -100 68 -19 23 -21 29 -8 24 12 -4 15 -3 10 5 -10 16 -5 15 46 -7z
m-1263 -198 c-36 -38 -89 -100 -118 -140 -52 -72 -138 -234 -166 -313 -8 -24
-19 -48 -24 -54 -4 -6 -11 -24 -15 -41 l-8 -30 -12 24 c-12 22 -14 19 -21 -45
-8 -66 -8 -68 -17 -34 -5 19 -19 45 -30 57 -15 16 -19 30 -15 55 16 107 119
299 216 401 57 61 153 134 200 153 20 7 43 18 51 23 30 20 23 10 -41 -56z
m1632 20 c13 -16 12 -17 -3 -4 -10 7 -18 15 -18 17 0 8 8 3 21 -13z m100 -99
c22 -25 22 -26 3 -16 -12 6 -24 18 -28 27 -8 21 -3 19 25 -11z m-2081 -151
c-9 -32 -24 -74 -33 -93 l-15 -35 -1 30 c-1 27 51 155 63 155 2 0 -4 -26 -14
-57z m2200 -74 c0 -18 -10 -8 -25 24 l-16 32 21 -24 c11 -13 20 -27 20 -32z
m-2294 -114 c-8 -91 -22 -145 -38 -145 -7 0 -9 22 -4 64 7 66 32 166 43 166 3
0 3 -38 -1 -85z m2264 5 c12 -23 12 -24 -3 -11 -10 7 -17 20 -17 29 0 18 3 16
20 -18z m220 -484 c-7 -7 -10 11 -10 60 0 92 14 106 18 18 2 -38 -2 -72 -8
-78z m37 52 c-3 -8 -6 -5 -6 6 -1 11 2 17 5 13 3 -3 4 -12 1 -19z"/>
<path d="M5655 7475 c16 -13 32 -22 35 -19 7 7 -39 44 -54 44 -6 -1 2 -12 19
-25z"/>
<path d="M6485 6910 c8 -46 14 -69 31 -105 7 -16 20 -48 28 -70 8 -22 15 -33
15 -25 1 13 2 13 11 0 5 -8 10 -38 10 -67 0 -28 5 -55 10 -58 13 -8 3 111 -16
185 -14 53 -14 54 -10 11 l4 -44 -20 34 c-12 19 -29 63 -39 98 -21 72 -33 93
-24 41z"/>
<path d="M6866 5133 c-6 -14 -5 -15 5 -6 7 7 10 15 7 18 -3 3 -9 -2 -12 -12z"/>
<path d="M4567 3879 c26 -22 53 -46 58 -53 6 -6 53 -48 106 -93 132 -113 284
-274 352 -374 31 -46 57 -77 57 -70 0 7 -5 21 -11 32 -21 40 185 265 459 499
61 52 109 97 106 99 -2 2 -23 -12 -46 -30 -24 -19 -54 -42 -68 -51 -14 -9 -35
-24 -47 -34 -11 -11 -56 -46 -98 -79 -99 -77 -271 -257 -298 -312 -12 -24 -24
-43 -27 -43 -3 0 -34 39 -70 86 -79 105 -201 222 -377 360 -132 104 -186 140
-96 63z"/>
<path d="M3183 3887 c-25 -32 -46 -89 -41 -113 4 -23 70 95 66 120 -3 19 -4
19 -25 -7z"/>
<path d="M10080 80 l0 -80 80 0 80 0 0 80 0 80 -80 0 -80 0 0 -80z"/>
</g>
</svg>
